Coordinates
version=1
nRows=5
nColumns=63
inDegrees=yes

Units are S.I. units (second, meters, Newtons, ...)
If the header above contains a line with 'inDegrees', this indicates whether rotational values are in degrees (yes) or radians (no).

endheader
time	pelvis_tilt	pelvis_list	pelvis_rotation	pelvis_tx	pelvis_ty	pelvis_tz	hip_flexion_r	hip_adduction_r	hip_rotation_r	knee_angle_r	knee_angle_r_beta	ankle_angle_r	subtalar_angle_r	mtp_angle_r	hip_flexion_l	hip_adduction_l	hip_rotation_l	knee_angle_l	knee_angle_l_beta	ankle_angle_l	subtalar_angle_l	mtp_angle_l	L5_S1_Flex_Ext	L5_S1_Lat_Bending	L5_S1_axial_rotation	L4_L5_Flex_Ext	L4_L5_Lat_Bending	L4_L5_axial_rotation	L3_L4_Flex_Ext	L3_L4_Lat_Bending	L3_L4_axial_rotation	L2_L3_Flex_Ext	L2_L3_Lat_Bending	L2_L3_axial_rotation	L1_L2_Flex_Ext	L1_L2_Lat_Bending	L1_L2_axial_rotation	L1_T12_Flex_Ext	L1_T12_Lat_Bending	L1_T12_axial_rotation	Abs_r3	Abs_r2	Abs_r1	Abs_t1	Abs_t2	neck_flexion	neck_bending	neck_rotation	arm_flex_r	arm_add_r	arm_rot_r	elbow_flex_r	pro_sup_r	wrist_flex_r	wrist_dev_r	arm_flex_l	arm_add_l	arm_rot_l	elbow_flex_l	pro_sup_l	wrist_flex_l	wrist_dev_l
      0.00000000	     -9.53171499	      2.24213537	     79.53443304	      0.09705833	      1.04629174	      0.29479711	      8.23902152	    -15.38686421	    -14.62007680	     34.87741794	      0.60872578	     51.73459637	     19.52821531	      0.00000000	      0.60498906	     10.30470869	      1.90162533	     19.58538347	      0.34182943	     41.05784182	     -3.18019325	      0.00000000	     -1.57541167	     -0.80411327	      0.30744823	     -2.92569700	     -1.06947065	      0.32666374	     -2.58824383	     -1.95512100	      0.32666374	     -1.80053799	     -1.95512100	      0.26901720	     -1.46292727	     -1.63974778	      0.24980169	     -0.90019023	     -1.24557145	      0.23058617	    -11.25300799	     -9.09629011	      1.70993482	      0.00000000	      0.00000000	     24.29738941	     -0.34264821	     -2.71780396	      5.36064497	     -5.76036988	    236.98070343	      6.65454707	      9.02715746	    -11.01857013	     -2.07733104	      0.29377997	    -16.95163390	    105.97459064	     12.76240965	      2.57372141	     -6.96924477	     -2.54066706
      0.01785714	     -3.82635189	      1.27953850	     82.71355594	      0.09255867	      1.05011598	      0.29062894	      4.58046540	     -8.59826774	    -18.40445768	     29.57224772	      0.51613309	     49.16454766	     19.41185471	      0.00000000	      2.03589216	      3.03757321	     -1.38939044	     23.09423794	      0.40307049	     45.12657857	      5.22326818	      0.00000000	     -1.49765639	     -0.02776074	     -0.01139781	     -2.78129768	     -0.03692178	     -0.01211018	     -2.46049968	     -0.06749746	     -0.01211018	     -1.71167149	     -0.06749746	     -0.00997309	     -1.39072372	     -0.05660970	     -0.00926072	     -0.85576086	     -0.04300138	     -0.00854836	    -10.69760982	     -0.31403503	     -0.06339123	      0.00000000	      0.00000000	     22.74446759	     -2.52885328	     -1.27517901	      5.32485794	     -9.10849194	    223.94389060	      6.82622928	      7.39115546	     -9.87292897	     -3.18421340	     -0.29388968	    -14.28986865	    102.82705058	     12.13160755	      3.00585823	     -6.60215860	     -1.78632197
      0.03571429	     -1.57631829	      0.59980743	     84.09712836	      0.09087961	      1.05210165	      0.28748405	      3.21962101	     -5.63080498	    -19.69092071	     26.66032543	      0.46531046	     47.58616858	     19.34223035	      0.00000000	      2.93692013	      0.21601657	     -1.80462214	     24.17985898	      0.42201815	     46.29851310	      7.61688349	      0.00000000	     -1.36138763	      0.29375342	     -0.14766828	     -2.52823297	      0.39069205	     -0.15689755	     -2.23662374	      0.71423207	     -0.15689755	     -1.55592993	      0.71423207	     -0.12920975	     -1.26418456	      0.59902198	     -0.11998048	     -0.77789689	      0.45502405	     -0.11075121	     -9.72425572	      3.32299748	     -0.82128669	      0.00000000	      0.00000000	     21.59924941	     -3.55322827	     -0.29732792	      5.33161651	    -10.86499338	    213.84168929	      7.10959534	      6.26047839	     -9.14047263	     -3.32200262	     -0.79372834	    -13.13011723	    100.36313820	     11.82431330	      3.45442166	     -6.30084035	     -1.55380751
      0.05357143	     -0.84656531	      0.30926427	     84.57387144	      0.09047089	      1.05360690	      0.28521641	      2.45944642	     -4.47933980	    -19.87111825	     25.01338369	      0.43656590	     46.75824452	     19.30009989	      0.00000000	      3.15521380	     -0.54165519	     -1.08269667	     24.21416422	      0.42261689	     46.33354411	      7.48620409	      0.00000000	     -1.27576001	      0.40782559	     -0.20569152	     -2.36921392	      0.54240804	     -0.21854724	     -2.09594612	      0.99158715	     -0.21854724	     -1.45806612	      0.99158715	     -0.17998008	     -1.18467075	      0.83163795	     -0.16712436	     -0.72896927	      0.63172184	     -0.15426864	     -9.11262619	      4.61340468	     -1.14399455	      0.00000000	      0.00000000	     20.73866997	     -3.85416399	      0.54239852	      5.47704748	    -11.66924453	    209.45810266	      7.13528889	      5.05703415	     -9.11117330	     -2.86999893	     -0.96066080	    -12.61991217	     99.29017552	     11.70579864	      3.45756808	     -6.07535967	     -1.60438467
      0.07142857	     -1.03580271	      0.06976043	     84.57106964	      0.09105799	      1.05425637	      0.28423514	      2.38825377	     -4.51528033	    -19.92179675	     24.54415445	      0.42837631	     46.35458136	     19.28731293	      0.00000000	      3.39893868	     -0.38496545	     -1.08483817	     24.19608341	      0.42230132	     46.25957583	      7.53623100	      0.00000000	     -1.21417291	      0.39276973	     -0.20978182	     -2.25484051	      0.52238374	     -0.22289318	     -1.99476467	      0.95498032	     -0.22289318	     -1.38767822	      0.95498032	     -0.18355909	     -1.12748096	      0.80093604	     -0.17044773	     -0.69377840	      0.60840031	     -0.15733637	     -8.67271566	      4.44308975	     -1.16674355	      0.00000000	      0.00000000	     20.47238852	     -4.08666572	      0.80001930	      5.74572383	    -11.77030044	    208.76307102	      6.88866073	      4.87394863	     -9.57614849	     -1.95747720	     -0.78562725	    -12.60065920	     99.21310648	     11.68006450	      3.51706718	     -5.97876928	     -1.90074160
